<svg xmlns="http://www.w3.org/2000/svg" width="903" height="276" viewBox="0 0 903 276">
<g>
<path d="M 752.30 274.90 C751.65,274.25 751.47,267.09 751.79,254.85 L 752.29 235.82 L 746.89 238.54 C743.93,240.04 741.17,241.77 740.77,242.38 C739.20,244.76 739.98,250.90 742.09,252.87 C743.81,254.47 743.98,255.18 743.05,256.90 C742.43,258.06 741.03,259.00 739.94,259.00 C737.49,259.00 736.00,255.43 736.00,249.60 C736.00,247.25 735.72,245.05 735.37,244.71 C735.03,244.36 733.18,244.73 731.27,245.53 C729.35,246.33 727.39,246.74 726.89,246.43 C724.81,245.15 726.33,243.23 731.25,240.94 C735.30,239.06 736.56,237.93 736.78,236.00 C737.41,230.38 738.08,228.87 739.78,229.20 C741.10,229.45 741.42,230.37 741.17,233.27 C740.85,236.96 740.88,237.00 743.55,235.98 C745.04,235.41 747.57,234.02 749.16,232.89 C751.69,231.08 751.98,230.39 751.42,227.40 C750.64,223.28 752.45,220.30 754.63,222.11 C755.38,222.73 756.00,224.40 756.00,225.81 L 756.00 228.37 L 758.92 225.58 C761.64,222.97 764.00,222.77 764.00,225.14 C764.00,225.70 762.15,227.99 759.89,230.23 L 755.78 234.30 L 756.14 254.22 C756.45,271.63 756.30,274.25 754.91,275.03 C753.94,275.57 752.92,275.52 752.30,274.90 ZM 485.00 272.25 C485.00,271.28 489.99,261.49 496.09,250.50 C508.63,227.90 510.46,224.40 511.42,221.31 L 512.10 219.11 L 508.23 221.23 C504.46,223.30 501.00,223.18 501.00,220.99 C501.00,219.73 514.65,213.00 517.22,213.00 C520.55,213.00 519.10,217.38 510.91,232.03 C506.45,239.99 499.63,252.35 495.75,259.50 C491.87,266.65 488.20,272.83 487.60,273.23 C485.82,274.43 485.00,274.11 485.00,272.25 ZM 591.04 270.07 C589.56,267.31 589.76,264.00 591.39,264.00 C592.16,264.00 593.05,264.67 593.36,265.50 C593.68,266.33 594.37,267.00 594.90,267.00 C596.04,267.00 596.63,265.14 597.46,259.00 L 598.07 254.50 L 592.95 260.00 C590.14,263.02 587.19,266.74 586.39,268.25 C584.99,270.92 581.71,271.96 580.56,270.09 C580.25,269.59 584.05,264.30 589.00,258.34 C596.61,249.17 597.99,246.96 597.97,244.00 L 597.93 240.50 L 595.90 243.00 C585.77,255.46 583.39,258.00 581.87,258.00 C578.15,258.00 579.03,255.62 585.15,249.14 C596.51,237.10 596.85,236.57 595.30,233.59 C594.55,232.17 593.75,231.00 593.51,231.00 C593.28,231.00 590.37,234.57 587.04,238.94 C580.26,247.86 579.82,248.25 577.59,247.40 C575.68,246.66 575.51,244.41 577.27,243.30 C577.98,242.86 580.95,239.45 583.88,235.72 L 589.22 228.94 L 584.61 224.89 C582.07,222.66 580.00,220.06 580.00,219.12 C580.00,216.71 589.66,202.27 592.53,200.39 C597.59,197.07 598.67,202.06 593.87,206.56 C589.97,210.23 585.00,216.91 585.00,218.49 C585.00,220.01 591.68,223.66 592.66,222.68 C593.06,222.27 592.63,220.65 591.70,219.06 C588.76,214.08 590.27,212.17 594.32,215.75 C595.57,216.86 596.43,217.10 596.68,216.39 C596.90,215.78 597.70,214.43 598.47,213.39 C599.59,211.87 600.11,211.75 601.14,212.76 C602.18,213.78 601.85,215.18 599.41,220.12 L 596.41 226.21 L 598.96 231.36 C601.35,236.20 601.50,237.38 601.45,251.62 C601.41,264.19 601.11,267.19 599.68,269.37 C597.54,272.63 592.62,273.02 591.04,270.07 ZM 810.01 261.52 C809.45,260.06 809.00,255.55 809.00,251.48 L 809.00 244.10 L 804.75 246.03 C799.16,248.56 797.79,248.51 798.18,245.79 C798.42,244.14 799.62,243.26 802.94,242.30 C808.63,240.66 809.93,239.40 807.66,237.74 C806.18,236.65 805.96,235.02 806.21,226.57 C806.51,216.32 807.97,213.16 809.97,218.42 C810.72,220.40 811.65,221.00 813.94,221.00 C815.96,221.00 817.30,221.69 818.06,223.11 C819.57,225.94 818.37,231.75 815.95,233.26 C814.06,234.44 813.23,237.00 814.75,237.00 C815.16,236.99 817.50,235.67 819.93,234.05 C822.37,232.43 824.73,231.34 825.18,231.61 C827.23,232.88 825.54,235.14 820.03,238.48 L 814.07 242.10 L 813.78 252.72 C813.59,260.09 813.12,263.46 812.26,263.75 C811.57,263.98 810.56,262.97 810.01,261.52 ZM 475.96 260.93 C475.07,259.26 475.07,257.34 475.96,252.77 C476.61,249.49 476.93,246.60 476.68,246.35 C476.43,246.09 474.25,247.96 471.85,250.50 C468.70,253.84 467.00,254.94 465.74,254.46 C464.78,254.09 464.00,253.34 464.00,252.79 C464.00,252.25 466.92,248.64 470.50,244.78 C475.83,239.02 477.00,237.15 477.00,234.38 C477.00,232.52 476.76,231.00 476.46,231.00 C476.16,231.00 474.08,231.94 471.84,233.08 C469.08,234.49 467.43,234.83 466.75,234.15 C464.90,232.30 466.86,230.05 472.72,227.26 C477.43,225.01 478.59,223.96 479.00,221.61 C479.32,219.76 480.35,218.41 481.87,217.85 C484.02,217.06 484.19,217.21 483.76,219.49 C483.21,222.35 483.34,222.43 485.88,220.84 C486.92,220.19 488.56,220.01 489.62,220.44 C491.34,221.13 491.25,221.38 488.61,223.35 C481.93,228.32 481.96,228.28 481.84,233.94 C481.72,239.86 481.97,240.20 490.91,246.22 C493.63,248.05 494.76,249.45 494.37,250.47 C493.53,252.67 491.99,252.38 486.66,249.00 C484.06,247.35 481.72,246.00 481.47,246.00 C481.21,246.00 480.96,248.59 480.90,251.75 C480.73,261.51 478.50,265.66 475.96,260.93 ZM 615.34 261.45 C615.02,260.60 615.33,253.40 616.04,245.45 C617.19,232.56 617.52,231.00 619.16,231.00 C620.33,231.00 621.00,231.73 621.00,233.00 C621.00,235.39 621.92,235.48 626.65,233.50 C631.22,231.59 635.44,231.59 637.34,233.48 C640.29,236.44 640.31,245.81 637.38,253.45 C636.74,255.11 637.32,255.19 645.60,254.58 C654.72,253.91 657.74,254.64 656.73,257.25 C656.30,258.38 653.06,258.83 641.84,259.28 C633.25,259.62 625.50,260.48 622.50,261.42 C616.30,263.35 616.07,263.35 615.34,261.45 ZM 622.84 253.45 C624.69,249.38 624.38,247.73 622.00,249.00 C620.69,249.70 620.00,251.09 620.00,253.04 C620.00,256.67 621.29,256.86 622.84,253.45 ZM 632.95 253.10 C633.44,252.18 634.16,248.20 634.55,244.24 C635.16,238.00 635.03,236.95 633.57,236.39 C630.71,235.29 621.00,240.45 621.00,243.07 C621.00,244.60 623.74,244.12 625.60,242.26 C627.55,240.30 632.68,239.68 633.67,241.28 C634.03,241.85 633.30,243.15 632.05,244.16 C630.81,245.16 629.44,247.45 629.01,249.24 C628.58,251.04 627.93,253.23 627.56,254.12 C627.01,255.43 627.38,255.65 629.47,255.25 C630.90,254.98 632.46,254.01 632.95,253.10 ZM 698.89 259.25 C697.73,256.24 697.40,240.78 698.46,239.07 C698.82,238.48 700.25,238.00 701.64,238.00 C704.81,238.00 704.29,235.79 700.93,234.94 C698.01,234.20 698.23,232.39 701.56,229.78 C704.62,227.37 703.89,226.00 699.55,226.00 C695.97,226.00 693.84,223.38 696.56,222.34 C698.72,221.51 705.80,222.59 707.51,224.01 C708.76,225.04 708.74,225.60 707.40,228.19 C706.00,230.90 706.00,231.35 707.43,232.92 C709.53,235.24 709.44,235.89 706.36,240.42 C703.26,244.98 701.92,250.06 702.87,253.62 C703.54,256.12 703.64,256.07 708.75,250.58 C714.06,244.88 715.69,244.09 717.80,246.20 C719.64,248.04 719.37,256.00 717.47,256.00 C716.63,256.00 715.60,255.09 715.19,253.99 C714.51,252.16 714.00,252.43 709.51,256.99 C703.76,262.83 700.53,263.51 698.89,259.25 ZM 513.55 260.07 C513.19,259.50 513.41,256.27 514.02,252.90 C514.65,249.41 514.84,244.01 514.45,240.39 C513.86,234.91 514.01,233.93 515.49,233.37 C518.12,232.35 518.98,234.76 518.90,243.00 C518.79,254.56 517.78,260.42 515.84,260.79 C514.93,260.97 513.90,260.64 513.55,260.07 ZM 148.54 257.13 C146.15,256.62 145.44,255.82 144.87,253.00 C143.94,248.49 144.47,248.07 146.39,251.79 C149.77,258.33 158.00,257.23 158.00,250.24 C158.00,248.02 154.84,244.91 150.21,242.57 C141.57,238.20 146.32,227.37 155.93,229.49 C158.58,230.07 159.00,230.59 158.97,233.33 C158.94,236.18 158.83,236.30 157.85,234.50 C155.43,230.08 152.21,228.94 149.57,231.57 C146.93,234.21 147.61,237.88 151.10,239.80 C159.11,244.20 161.73,247.96 159.98,252.55 C159.21,254.57 153.21,258.48 151.78,257.88 C151.63,257.82 150.17,257.48 148.54,257.13 ZM 380.05 256.56 C379.31,255.67 378.96,254.71 379.25,254.41 C380.17,253.50 390.15,251.05 397.50,249.93 C401.35,249.35 408.24,247.94 412.82,246.81 C418.70,245.35 421.45,245.05 422.20,245.80 C424.15,247.75 422.23,249.71 417.83,250.28 C414.38,250.73 397.78,254.30 383.44,257.68 C382.26,257.95 380.81,257.47 380.05,256.56 ZM 55.47 244.39 C52.05,235.70 49.88,231.52 48.50,230.95 C47.06,230.36 47.90,230.12 51.50,230.09 C55.22,230.07 56.07,230.31 54.83,231.04 C53.29,231.94 53.34,232.47 55.44,237.76 C60.55,250.55 61.30,252.10 62.05,251.32 C62.49,250.87 64.50,246.48 66.52,241.56 C70.00,233.11 70.11,232.55 68.41,231.31 C66.84,230.16 67.22,230.00 71.44,230.00 L 76.27 230.00 L 73.82 231.92 C72.38,233.06 69.36,238.56 66.44,245.41 C63.72,251.76 61.26,256.97 60.97,256.98 C60.68,256.99 58.21,251.33 55.47,244.39 ZM 106.25 255.92 C107.76,255.04 108.00,253.28 108.00,243.02 C108.00,232.55 107.79,231.09 106.25,230.69 C105.29,230.44 106.75,230.19 109.50,230.15 C113.35,230.08 114.10,230.30 112.75,231.08 C111.25,231.96 111.00,233.70 111.00,243.50 C111.00,253.30 111.25,255.04 112.75,255.92 C114.11,256.71 113.37,256.94 109.50,256.94 C105.63,256.94 104.89,256.71 106.25,255.92 ZM 197.66 255.87 C194.55,254.06 193.00,248.64 193.00,239.61 C193.00,232.39 192.74,231.08 191.25,230.69 C190.29,230.44 191.75,230.23 194.50,230.23 C197.25,230.23 198.71,230.44 197.75,230.69 C196.24,231.08 196.00,232.43 196.00,240.44 C196.00,248.32 196.31,250.13 198.07,252.37 C200.99,256.07 207.61,256.11 211.05,252.44 C213.20,250.16 213.46,248.98 213.48,241.24 C213.50,233.00 213.38,232.52 211.00,231.31 C208.68,230.12 208.89,230.03 213.97,230.01 C219.21,230.00 219.35,230.07 217.22,231.56 C215.27,232.92 215.00,234.00 215.00,240.41 C215.00,249.48 213.61,253.63 209.94,255.53 C206.64,257.24 200.31,257.41 197.66,255.87 ZM 248.89 255.25 C250.05,254.29 253.18,248.41 255.86,242.19 C258.53,235.97 261.10,230.79 261.56,230.69 C262.03,230.58 264.32,235.68 266.67,242.00 C269.11,248.60 271.84,254.25 273.07,255.25 C275.18,256.96 275.11,257.00 269.86,256.88 C266.91,256.82 265.29,256.56 266.25,256.31 C268.31,255.77 268.45,253.89 266.78,249.28 C265.60,246.00 265.43,245.92 260.57,246.21 C255.78,246.49 255.51,246.66 254.10,250.38 C252.74,253.98 252.77,254.36 254.51,255.63 C256.19,256.86 255.89,257.00 251.58,257.00 C246.87,257.00 246.82,256.97 248.89,255.25 ZM 264.75 243.75 C264.49,243.06 263.68,240.81 262.94,238.75 C262.20,236.69 261.29,235.00 260.91,235.00 C260.18,235.00 257.00,242.34 257.00,244.02 C257.00,244.56 258.85,245.00 261.11,245.00 C263.97,245.00 265.07,244.62 264.75,243.75 ZM 304.75 255.97 C306.90,255.10 307.00,254.56 307.00,243.50 C307.00,232.44 306.90,231.90 304.75,231.03 C303.01,230.33 303.74,230.13 308.00,230.14 C311.02,230.15 312.83,230.41 312.00,230.73 C309.40,231.72 309.03,233.25 309.02,243.18 C309.00,250.66 309.36,253.21 310.57,254.43 C313.40,257.26 320.32,255.71 321.51,251.98 C322.51,248.83 323.30,250.36 322.52,253.93 L 321.84 257.00 L 312.17 256.94 C305.36,256.89 303.17,256.61 304.75,255.97 ZM 677.00 253.64 C677.00,252.89 679.20,247.58 681.89,241.84 C684.58,236.10 689.39,224.33 692.58,215.68 C695.77,207.03 698.86,200.12 699.44,200.31 C700.02,200.50 700.72,202.18 701.00,204.03 C701.47,207.21 701.87,207.50 708.00,209.28 C720.73,212.97 719.29,216.61 706.31,213.55 C702.22,212.59 698.71,211.96 698.52,212.15 C697.72,212.96 684.15,244.94 682.57,249.75 C681.28,253.66 680.35,255.00 678.92,255.00 C677.86,255.00 677.00,254.39 677.00,253.64 ZM 844.00 253.52 C843.17,253.31 840.81,252.86 838.75,252.52 C834.08,251.76 833.95,250.22 837.98,242.91 C841.63,236.30 841.65,236.00 838.43,236.00 C836.34,236.00 835.92,235.58 836.18,233.75 C836.50,231.48 837.23,231.34 842.75,232.55 C845.79,233.21 845.69,236.70 842.47,243.05 C839.66,248.59 839.68,248.61 847.00,249.29 C850.35,249.59 865.63,248.35 874.71,247.03 C874.83,247.01 875.43,246.07 876.03,244.94 C877.54,242.12 875.73,233.98 872.58,229.33 C870.15,225.75 870.11,223.00 872.48,223.00 C874.23,223.00 877.81,231.68 879.75,240.63 C881.73,249.76 881.26,250.45 872.00,251.93 C864.83,253.08 846.36,254.12 844.00,253.52 ZM 541.00 246.48 C539.08,245.76 533.97,244.84 529.67,244.44 C524.31,243.95 521.66,243.28 521.28,242.30 C520.08,239.16 522.61,238.76 533.06,240.41 C544.25,242.19 548.50,243.73 548.50,246.01 C548.50,247.94 545.40,248.14 541.00,246.48 ZM 386.18 241.39 C386.58,239.36 402.00,234.65 403.48,236.10 C405.33,237.91 402.43,240.36 396.93,241.65 C389.16,243.46 385.78,243.38 386.18,241.39 ZM 386.70 227.66 C386.42,226.92 386.53,225.75 386.96,225.06 C387.95,223.46 402.45,220.04 404.05,221.03 C406.55,222.58 404.12,224.39 396.51,226.65 C387.26,229.40 387.36,229.39 386.70,227.66 ZM 617.61 222.42 C617.27,221.55 617.00,219.79 617.00,218.51 C617.00,216.73 616.56,216.30 615.11,216.68 C611.91,217.52 611.42,214.87 614.34,212.55 C615.80,211.38 617.00,209.69 617.00,208.79 C617.00,206.42 618.07,204.00 619.13,204.00 C619.63,204.00 620.56,205.12 621.18,206.50 C622.58,209.56 623.70,209.63 626.68,206.83 C628.64,204.99 629.35,204.84 631.49,205.81 C634.54,207.20 634.68,208.56 631.93,210.04 C630.80,210.64 628.97,213.25 627.88,215.82 C624.96,222.72 619.15,226.44 617.61,222.42 ZM 734.73 219.40 C733.24,217.91 734.11,215.78 738.75,209.61 C741.36,206.14 744.27,201.88 745.20,200.15 C746.14,198.42 747.60,197.00 748.45,197.00 C750.68,197.00 750.45,197.75 746.00,205.38 C743.80,209.14 742.00,212.60 742.00,213.06 C742.00,213.52 743.56,213.25 745.47,212.45 C749.76,210.66 753.31,210.56 752.77,212.25 C751.79,215.31 736.65,221.31 734.73,219.40 ZM 839.10 216.19 C837.92,213.98 837.61,206.18 838.61,203.58 C838.94,202.71 840.12,202.00 841.22,202.00 C843.08,202.00 843.18,202.43 842.53,207.63 L 841.82 213.25 L 847.28 212.57 C851.71,212.02 852.85,212.18 853.33,213.43 C854.11,215.46 851.21,216.95 845.07,217.68 C840.85,218.18 840.06,217.98 839.10,216.19 ZM 810.00 214.47 C810.00,213.27 809.50,212.98 808.25,213.48 C807.29,213.86 804.99,214.42 803.15,214.73 C800.26,215.22 799.85,215.03 800.16,213.42 C800.38,212.27 802.22,210.92 804.93,209.92 C807.59,208.94 809.67,207.43 810.14,206.14 C811.09,203.57 810.88,203.60 815.01,205.66 C818.31,207.30 818.32,207.32 816.26,208.99 C815.12,209.92 814.03,211.75 813.84,213.08 C813.45,215.85 810.00,217.10 810.00,214.47 ZM 243.64 207.50 C242.80,205.30 242.78,205.34 260.60,169.86 C269.62,151.91 277.00,136.97 277.00,136.65 C277.00,136.34 267.66,141.76 256.25,148.69 C227.21,166.34 210.92,174.70 201.85,176.62 C189.22,179.29 178.13,176.54 173.96,169.71 C170.31,163.71 171.73,150.72 177.55,136.89 C178.96,133.53 179.94,130.60 179.72,130.39 C179.50,130.17 174.86,133.43 169.41,137.63 C157.01,147.19 149.31,151.00 142.38,151.00 C129.57,151.00 127.74,140.07 137.72,123.05 C141.96,115.82 152.93,103.60 157.14,101.43 C160.51,99.69 164.19,99.59 165.80,101.20 C168.37,103.77 166.99,107.27 160.21,115.38 C144.41,134.29 141.70,138.68 144.44,140.95 C148.31,144.16 154.78,139.77 180.21,116.69 C189.79,108.00 198.94,100.02 200.56,98.95 C204.76,96.18 208.77,96.40 210.17,99.47 C211.71,102.86 209.86,107.40 200.36,123.52 C189.81,141.44 182.83,156.03 182.70,160.43 C182.48,168.33 191.64,172.02 203.10,168.64 C209.35,166.79 229.35,156.19 260.31,138.28 C285.35,123.81 282.89,126.59 291.09,103.55 C296.99,86.99 300.22,82.00 305.07,82.00 C308.65,82.00 310.39,84.91 309.45,89.31 C309.07,91.06 307.24,96.37 305.38,101.11 C303.52,105.84 302.00,109.90 302.00,110.13 C302.00,110.36 305.94,106.69 310.75,101.96 C321.13,91.77 326.78,88.70 336.00,88.22 C348.07,87.59 353.38,93.06 352.78,105.50 C352.38,113.63 349.55,120.53 343.11,129.00 C339.25,134.08 339.10,134.52 341.03,134.83 C344.67,135.40 359.10,131.98 364.41,129.30 C372.39,125.25 375.77,122.21 380.65,114.66 C389.40,101.13 400.42,92.85 411.54,91.44 C420.91,90.25 427.99,95.73 428.00,104.18 C428.00,111.46 423.75,118.00 419.03,118.00 C414.33,118.00 413.93,116.33 417.15,110.21 C419.17,106.37 420.00,103.49 419.80,101.06 C419.51,97.68 419.30,97.49 415.47,97.20 C399.52,96.03 378.32,136.34 387.51,150.37 C391.28,156.13 405.12,157.75 417.64,153.89 C425.69,151.40 432.20,148.25 440.54,142.80 C445.69,139.43 446.85,138.11 448.36,133.84 C449.70,130.07 452.20,126.77 458.41,120.56 C481.12,97.86 500.13,93.53 508.27,109.22 L 509.68 111.93 L 516.98 103.89 C528.53,91.15 534.90,88.20 538.06,94.12 C540.03,97.79 538.22,102.32 531.49,110.56 C518.68,126.25 508.07,140.57 506.53,144.26 C502.50,153.94 510.89,158.55 525.07,154.42 C539.86,150.11 573.50,127.93 594.00,108.97 L 599.50 103.88 L 589.96 104.35 C579.86,104.84 577.00,104.10 577.00,100.99 C577.00,98.24 580.01,97.00 586.68,96.99 C589.88,96.99 594.75,96.71 597.50,96.37 L 602.50 95.75 L 607.27 85.10 C614.17,69.67 620.79,58.42 626.54,52.33 C631.05,47.55 632.00,47.00 635.73,47.00 C638.66,47.00 640.70,47.70 642.64,49.36 C649.76,55.49 643.27,71.21 626.15,89.25 L 620.70 95.00 L 635.77 95.00 C652.12,95.00 654.00,95.31 654.00,97.98 C654.00,101.93 651.49,102.49 631.95,102.83 C610.17,103.21 610.83,102.91 606.59,114.17 C600.37,130.70 597.38,149.87 600.32,154.37 C602.46,157.63 608.10,159.39 613.87,158.61 C626.08,156.96 655.43,144.11 672.50,132.96 C681.25,127.24 695.01,116.71 704.69,108.31 L 710.87 102.94 L 709.44 99.50 C706.62,92.76 708.04,84.15 712.87,78.64 C715.76,75.36 721.67,73.00 727.04,73.00 C731.36,73.00 732.61,73.45 735.08,75.92 C736.71,77.55 738.00,79.92 738.00,81.28 C738.00,84.27 734.27,90.00 728.37,96.07 L 723.94 100.63 L 727.39 111.66 C731.87,125.93 733.30,136.03 731.91,143.55 C731.33,146.69 731.22,149.61 731.68,150.04 C732.66,150.98 752.24,155.35 763.50,157.14 C767.90,157.84 779.15,158.38 788.50,158.34 C803.34,158.27 806.72,157.94 815.08,155.73 C828.13,152.29 835.86,148.21 841.07,142.03 C845.17,137.17 848.97,135.53 850.48,137.97 C852.15,140.66 843.45,150.33 834.94,155.27 C815.75,166.38 776.80,167.03 736.71,156.91 L 728.93 154.94 L 724.09 159.90 C717.98,166.19 711.38,168.37 700.15,167.84 C688.32,167.29 681.67,162.93 680.36,154.86 C679.61,150.19 682.32,144.39 686.42,141.89 C690.92,139.14 697.51,139.50 707.00,143.00 C711.48,144.65 715.78,146.00 716.57,146.00 C719.26,146.00 718.27,126.71 714.91,113.80 L 713.95 110.10 L 703.73 118.14 C667.63,146.50 626.15,168.00 607.52,168.00 C598.74,168.00 594.70,166.05 591.22,160.12 C588.76,155.94 588.51,154.64 588.65,146.50 C588.75,140.56 589.65,134.27 591.29,128.00 C592.65,122.78 593.68,118.40 593.57,118.27 C593.46,118.14 588.00,122.33 581.43,127.58 C560.45,144.35 539.84,156.74 524.28,161.93 C512.08,165.99 500.74,164.08 496.75,157.29 C494.33,153.18 493.16,146.06 493.99,140.59 C494.37,138.06 494.52,136.00 494.33,136.00 C494.13,136.00 490.62,138.66 486.52,141.92 C468.47,156.26 453.51,158.50 448.19,147.64 C447.36,145.96 446.44,145.25 445.69,145.73 C445.03,146.16 441.84,148.25 438.58,150.39 C425.76,158.81 413.04,162.96 399.93,162.99 C386.92,163.01 378.08,158.73 375.19,151.00 C373.56,146.66 372.93,138.69 373.80,133.45 L 374.64 128.40 L 367.07 132.23 C359.18,136.22 347.69,139.00 339.05,139.00 C335.21,139.00 333.51,139.61 330.39,142.10 C321.04,149.54 311.96,153.08 301.96,153.18 C292.94,153.26 291.00,152.53 291.00,149.07 C291.00,147.53 291.94,145.07 293.09,143.61 C296.82,138.87 302.34,136.87 314.42,135.88 L 325.50 134.97 L 329.28 130.74 C334.45,124.93 337.50,119.54 339.50,112.65 C341.57,105.53 340.87,100.83 337.33,98.04 C330.78,92.89 319.96,97.76 305.46,112.38 L 295.23 122.69 L 275.25 163.15 C254.61,204.92 252.06,209.00 246.53,209.00 C245.26,209.00 243.95,208.32 243.64,207.50 ZM 707.47 160.01 C710.44,158.88 715.00,154.32 715.00,152.48 C715.00,150.93 703.61,148.00 697.62,148.00 C688.48,148.00 687.02,155.29 695.40,159.09 C700.02,161.19 703.65,161.47 707.47,160.01 ZM 311.75 144.45 C315.74,142.49 319.00,140.47 319.00,139.96 C319.00,138.96 312.34,139.52 304.80,141.15 C300.15,142.17 295.00,145.81 295.00,148.09 C295.00,150.19 304.06,148.23 311.75,144.45 ZM 477.12 138.01 C489.65,129.06 500.19,120.71 501.37,118.81 C503.00,116.18 499.55,113.00 495.07,113.00 C490.27,113.00 480.66,118.71 471.99,126.73 C464.27,133.86 461.32,138.87 462.99,141.99 C464.77,145.31 468.29,144.32 477.12,138.01 ZM 728.00 84.04 C728.00,82.24 723.09,82.91 721.00,85.00 C719.01,86.99 718.33,91.00 719.74,92.40 C720.56,93.22 728.00,85.69 728.00,84.04 ZM 621.15 85.25 C628.71,77.14 636.00,65.26 636.00,61.04 C636.00,56.10 632.62,59.85 623.65,74.70 C613.60,91.36 612.97,94.03 621.15,85.25 ZM 733.67 203.25 C729.27,196.25 728.98,195.41 730.29,193.66 C731.89,191.52 733.09,192.47 736.50,198.60 C740.79,206.31 738.24,210.52 733.67,203.25 ZM 20.22 198.53 C4.22,193.53 -3.38,173.44 1.58,149.21 C9.94,108.31 45.69,62.08 82.14,45.02 C97.60,37.79 114.83,37.51 119.35,44.42 C124.53,52.32 119.54,69.21 107.00,86.23 C100.60,94.92 94.82,99.20 90.03,98.80 C87.04,98.55 86.45,98.09 86.19,95.82 C85.95,93.70 87.23,91.67 92.30,86.14 C105.79,71.44 112.99,59.91 112.97,53.00 C112.97,48.63 112.20,47.41 108.60,46.04 C104.86,44.62 96.73,46.09 90.29,49.35 C72.76,58.24 49.45,83.84 34.18,111.00 C22.15,132.37 16.67,149.22 16.59,165.00 C16.53,175.77 17.85,180.62 22.16,185.52 C26.03,189.94 30.77,191.44 40.50,191.33 C59.41,191.12 80.72,178.94 107.10,153.26 C119.03,141.66 122.02,139.61 123.53,142.04 C124.50,143.62 121.59,147.48 111.59,157.84 C91.10,179.06 69.89,192.72 49.33,197.93 C39.92,200.32 26.81,200.59 20.22,198.53 ZM 897.34 125.75 C892.66,118.36 886.34,103.93 882.11,91.00 C878.33,79.43 875.19,67.11 867.07,31.94 C862.13,10.56 856.98,1.83 850.26,3.44 C848.57,3.84 843.34,8.36 836.80,15.05 C830.45,21.54 825.30,26.00 824.15,26.00 C823.08,26.00 819.35,26.88 815.85,27.97 C810.70,29.55 807.39,31.66 798.56,38.95 C790.42,45.67 786.21,48.43 782.07,49.74 C774.22,52.23 773.79,53.45 774.92,70.39 C775.72,82.35 776.20,84.83 778.80,90.39 C782.44,98.17 787.50,103.93 793.48,107.10 C800.99,111.08 798.39,112.75 790.71,108.88 C776.04,101.49 769.17,88.30 767.61,64.50 C767.01,55.35 767.14,54.12 769.23,50.00 C771.28,45.94 772.12,45.29 777.84,43.33 C781.35,42.13 786.26,39.42 788.84,37.26 C804.98,23.77 807.02,22.62 819.70,19.95 C824.04,19.04 826.25,17.64 833.20,11.42 C846.00,-0.06 852.30,-2.28 859.10,2.28 C864.32,5.78 868.62,15.60 873.12,34.29 C883.86,78.95 891.45,104.28 898.99,120.60 C901.20,125.37 903.00,129.44 903.00,129.64 C903.00,129.84 902.33,130.00 901.51,130.00 C900.69,130.00 898.82,128.09 897.34,125.75 ZM 799.91 78.90 C791.38,72.10 790.67,71.26 795.89,74.11 C800.78,76.77 809.11,83.89 807.41,83.96 C806.82,83.98 803.44,81.70 799.91,78.90 ZM 816.74 77.40 C816.41,77.08 811.05,74.61 804.82,71.91 C793.31,66.93 792.05,65.40 802.39,68.96 C809.06,71.26 818.00,75.95 818.00,77.16 C818.00,78.15 817.57,78.23 816.74,77.40 ZM 837.51 28.01 C835.77,26.09 835.80,25.90 838.40,22.15 C839.88,20.01 842.26,17.19 843.68,15.88 L 846.28 13.50 L 845.63 17.77 C844.74,23.54 842.06,30.00 840.55,30.00 C839.87,30.00 838.50,29.11 837.51,28.01 Z" fill="rgba(0,0,0,1)"/>
</g>
</svg>